<?xml version="1.0" encoding="utf-8"?>
<!-- Generator: Adobe Illustrator 22.0.1, SVG Export Plug-In . SVG Version: 6.00 Build 0)  -->
<svg version="1.1" xmlns="http://www.w3.org/2000/svg" xmlns:xlink="http://www.w3.org/1999/xlink" x="100px" y="500px"
	 viewBox="0 0 1600 1600" style="enable-background:new 0 0 1600 1600;"   fill="#DADCDB" stroke="#797C81" stroke-width="2px">
<style type="text/css">

</style>
<g id="Слой_1">
	<g>
		<path class="st0" d="M530.6,973.8l-4.3-11.1h-0.6c-3.8,4.7-7.6,8-11.6,9.9c-4,1.8-9.2,2.7-15.6,2.7c-7.9,0-14.1-2.2-18.6-6.7
			c-4.5-4.5-6.8-10.9-6.8-19.2c0-8.7,3-15.1,9.1-19.2c6.1-4.1,15.2-6.4,27.5-6.8l14.2-0.4v-3.6c0-8.3-4.2-12.5-12.7-12.5
			c-6.5,0-14.2,2-23.1,5.9l-7.4-15.1c9.4-4.9,19.9-7.4,31.3-7.4c11,0,19.4,2.4,25.3,7.2c5.9,4.8,8.8,12.1,8.8,21.8v54.6H530.6z
			 M524.1,935.8l-8.6,0.3c-6.5,0.2-11.3,1.4-14.5,3.5c-3.2,2.1-4.8,5.4-4.8,9.8c0,6.3,3.6,9.4,10.8,9.4c5.2,0,9.3-1.5,12.4-4.5
			c3.1-3,4.7-6.9,4.7-11.9V935.8z"/>
		<path class="st0" d="M642.6,973.8h-22.3v-65.1h-20.6c-1.6,18.3-3.5,32-5.7,41c-2.2,9-5.2,15.5-9,19.6c-3.7,4-8.6,6-14.7,6
			c-5.2,0-9.4-0.8-12.7-2.3V955c2.4,1,4.8,1.5,7.2,1.5c2.8,0,5.1-2,7-6c1.9-4,3.6-10.7,5.1-20c1.5-9.4,2.8-22.2,3.8-38.6h62V973.8z"
			/>
		<path class="st0" d="M718,973.8l-4.3-11.1h-0.6c-3.8,4.7-7.6,8-11.6,9.9c-4,1.8-9.2,2.7-15.6,2.7c-7.9,0-14.1-2.2-18.6-6.7
			c-4.5-4.5-6.8-10.9-6.8-19.2c0-8.7,3-15.1,9.1-19.2c6.1-4.1,15.2-6.4,27.5-6.8l14.2-0.4v-3.6c0-8.3-4.2-12.5-12.7-12.5
			c-6.5,0-14.2,2-23.1,5.9l-7.4-15.1c9.4-4.9,19.9-7.4,31.3-7.4c11,0,19.4,2.4,25.3,7.2c5.9,4.8,8.8,12.1,8.8,21.8v54.6H718z
			 M711.4,935.8l-8.6,0.3c-6.5,0.2-11.3,1.4-14.5,3.5c-3.2,2.1-4.8,5.4-4.8,9.8c0,6.3,3.6,9.4,10.8,9.4c5.2,0,9.3-1.5,12.4-4.5
			c3.1-3,4.7-6.9,4.7-11.9V935.8z"/>
		<path class="st0" d="M778.9,891.9v31.5h31.2v-31.5h22.3v81.9h-22.3V940h-31.2v33.8h-22.3v-81.9H778.9z"/>
		<path class="st0" d="M923.7,891.9v16.8h-26.8v65.1h-22.3v-65.1h-26.9v-16.8H923.7z"/>
		<g>
			<path class="st0" d="M444,872.1h23V857H358.6v15.6h30.4v60.7c0,0-0.9,23.4-36,23.4s-97.2-10.8-101.5-110.6
				c-4.3-99.8,59-122.8,87.6-123.6c28.6-0.9,71.6,18.7,90.2,80.3c9.5-0.4,11.7,0,11.7,0v-91.1c0,0-6.5,15.2-21.3,14.7
				C405,726,393.3,706,337.3,706c-65.5,0-140.5,42.9-140.5,126.7c0,88.9,41.6,143.6,145.3,141c0,0,17.4-1.1,27.4-4.1
				c14.2-4.3,21.4-9,21.4-9l0.1,13.1h53V872.1z"/>
		</g>
	</g>
	<g>
		<path fill="#8A4851" class="st0" d="M425.7,448.4h23v-15.2H340.1v15.6h30.4v60.8c0,0-0.9,23.5-36.1,23.5s-97.3-10.9-101.7-110.8
			c-4.3-100,59.1-123,87.8-123.9c28.7-0.9,71.7,18.7,90.4,80.4c9.6-0.4,11.7,0,11.7,0v-91.3c0,0-6.5,15.2-21.3,14.8
			c-14.8-0.4-26.5-20.4-82.6-20.4C253.2,282,178,325,178,408.9c0,89.1,41.7,143.8,145.6,141.2c0,0,17.4-1.1,27.4-4.1
			c14.2-4.3,21.5-9,21.5-9l0.1,13.1h53.1V448.4z"/>
		<path class="st0" d="M508.6,548.9l-4.3-11.1h-0.6c-3.8,4.7-7.6,8-11.6,9.9c-4,1.8-9.2,2.7-15.6,2.7c-7.9,0-14.1-2.2-18.6-6.7
			c-4.5-4.5-6.8-10.9-6.8-19.2c0-8.7,3-15.1,9.1-19.2c6.1-4.1,15.2-6.4,27.5-6.8l14.2-0.4v-3.6c0-8.3-4.2-12.5-12.7-12.5
			c-6.5,0-14.2,2-23.1,5.9l-7.4-15.1c9.4-4.9,19.9-7.4,31.3-7.4c11,0,19.4,2.4,25.3,7.2c5.9,4.8,8.8,12.1,8.8,21.8v54.6H508.6z
			 M502.1,511l-8.6,0.3c-6.5,0.2-11.3,1.4-14.5,3.5c-3.2,2.1-4.8,5.4-4.8,9.8c0,6.3,3.6,9.4,10.8,9.4c5.2,0,9.3-1.5,12.4-4.5
			c3.1-3,4.7-6.9,4.7-11.9V511z"/>
		<path class="st0" d="M569.6,548.9h-22.3V435h22.3V548.9z"/>
		<path class="st0" d="M630.1,550.4c-13.2,0-23.5-3.6-30.9-10.9c-7.4-7.3-11.1-17.6-11.1-30.9c0-13.7,3.4-24.3,10.3-31.8
			c6.9-7.5,16.3-11.2,28.5-11.2c11.6,0,20.6,3.3,27,9.9s9.7,15.7,9.7,27.3v10.8h-52.8c0.2,6.3,2.1,11.3,5.6,14.9
			c3.5,3.6,8.4,5.3,14.8,5.3c4.9,0,9.6-0.5,14-1.5s9-2.7,13.8-4.9v17.3c-3.9,2-8.1,3.4-12.5,4.4
			C641.9,549.9,636.5,550.4,630.1,550.4z M626.9,481.4c-4.7,0-8.4,1.5-11.1,4.5c-2.7,3-4.2,7.3-4.6,12.8h31.3
			c-0.1-5.5-1.5-9.8-4.3-12.8C635.4,482.9,631.7,481.4,626.9,481.4z"/>
		<path class="st0" d="M757.2,548.9h-22.3v-47.8c0-5.9-1.1-10.3-3.1-13.3c-2.1-3-5.4-4.4-10-4.4c-6.3,0-10.8,2.1-13.5,6.3
			c-2.8,4.2-4.2,11.1-4.2,20.8v38.5h-22.3V467h17.1l3,10.5h1.2c2.5-4,5.9-6.9,10.3-9c4.4-2,9.3-3,14.9-3c9.5,0,16.7,2.6,21.7,7.7
			c4.9,5.2,7.4,12.6,7.4,22.3V548.9z"/>
		<path class="st0" d="M814.7,532.6c3.9,0,8.6-0.9,14.1-2.6v16.6c-5.6,2.5-12.4,3.7-20.5,3.7c-8.9,0-15.4-2.3-19.5-6.8
			c-4.1-4.5-6.1-11.3-6.1-20.3v-39.5H772v-9.4l12.3-7.5l6.4-17.3H805V467h22.9v16.8H805v39.5c0,3.2,0.9,5.5,2.7,7
			C809.4,531.8,811.8,532.6,814.7,532.6z"/>
	</g>
	<g>
		<path class="st0" d="M1310.9,405.4h31.6v-20.9h-149.1V406h41.7v83.5c0,0-1.2,32.2-49.5,32.2c-48.3,0-133.6-14.9-139.5-152
			s81.1-168.7,120.4-169.9s98.4,25.6,124,110.3c13.1-0.6,16.1,0,16.1,0V184.8c0,0-8.9,20.9-29.2,20.3c-20.3-0.6-36.4-28-113.3-28
			c-90,0-193.2,59-193.2,174.1c0,122.2,57.2,197.4,199.7,193.8c0,0,23.9-1.6,37.6-5.7c19.5-5.9,29.5-12.3,29.5-12.3l0.2,18h72.9
			V405.4z"/>
	</g>
</g>
<g id="Режим_изоляции">
	<path class="st0" d="M1341.4,929.5h28.9v-19.1h-136.1V930h38.1v76.2c0,0-1.1,29.4-45.2,29.4c-44.1,0-122-13.6-127.4-138.8
		c-5.4-125.2,74.1-154.1,110-155.2c35.9-1.1,89.8,23.4,113.3,100.7c12-0.5,14.7,0,14.7,0V728c0,0-8.2,19.1-26.7,18.5
		c-18.5-0.5-33.2-25.6-103.5-25.6c-82.2,0-176.4,53.9-176.4,159c0,111.6,52.3,180.2,182.4,177h128V929.5z"/>
</g>
</svg>
