<?xml version="1.0" encoding="utf-8"?>
<!-- Generator: Adobe Illustrator 24.3.0, SVG Export Plug-In . SVG Version: 6.00 Build 0)  -->
<svg version="1.1" id="Слой_1" xmlns="http://www.w3.org/2000/svg" xmlns:xlink="http://www.w3.org/1999/xlink" x="0px" y="0px"
	 viewBox="0 0 727 270" style="enable-background:new 0 0 727 270;" xml:space="preserve"  fill="#494949">
<style type="text/css">

</style>
<g>
	<path class="st0" d="M334.13,268.04l-4.32-11.13h-0.59c-3.76,4.74-7.63,8.02-11.61,9.85c-3.98,1.83-9.17,2.75-15.56,2.75
		c-7.86,0-14.05-2.25-18.57-6.74c-4.52-4.49-6.77-10.89-6.77-19.19c0-8.69,3.04-15.1,9.12-19.23c6.08-4.13,15.25-6.41,27.5-6.85
		l14.21-0.44v-3.59c0-8.3-4.25-12.45-12.74-12.45c-6.54,0-14.23,1.98-23.07,5.93l-7.4-15.09c9.42-4.93,19.87-7.4,31.35-7.4
		c10.99,0,19.41,2.39,25.27,7.18c5.86,4.79,8.79,12.06,8.79,21.83v54.57H334.13z M327.54,230.1l-8.64,0.29
		c-6.5,0.2-11.33,1.37-14.5,3.52c-3.17,2.15-4.76,5.42-4.76,9.81c0,6.3,3.61,9.45,10.84,9.45c5.17,0,9.31-1.49,12.41-4.47
		c3.1-2.98,4.65-6.93,4.65-11.87V230.1z"/>
	<path class="st0" d="M446.04,268.04h-22.34v-65.11h-20.58c-1.56,18.31-3.47,31.97-5.71,40.98c-2.25,9.01-5.24,15.53-8.97,19.55
		c-3.74,4.03-8.63,6.04-14.69,6.04c-5.18,0-9.42-0.78-12.74-2.34v-17.87c2.39,0.98,4.79,1.46,7.18,1.46c2.78,0,5.11-2,6.99-6.01
		c1.88-4,3.56-10.68,5.05-20.03c1.49-9.35,2.77-22.2,3.84-38.56h61.96V268.04z"/>
	<path class="st0" d="M521.48,268.04l-4.32-11.13h-0.59c-3.76,4.74-7.63,8.02-11.61,9.85c-3.98,1.83-9.17,2.75-15.56,2.75
		c-7.86,0-14.05-2.25-18.57-6.74c-4.52-4.49-6.77-10.89-6.77-19.19c0-8.69,3.04-15.1,9.12-19.23c6.08-4.13,15.25-6.41,27.5-6.85
		l14.21-0.44v-3.59c0-8.3-4.25-12.45-12.74-12.45c-6.54,0-14.23,1.98-23.07,5.93l-7.4-15.09c9.42-4.93,19.87-7.4,31.35-7.4
		c10.99,0,19.41,2.39,25.27,7.18c5.86,4.79,8.79,12.06,8.79,21.83v54.57H521.48z M514.89,230.1l-8.64,0.29
		c-6.5,0.2-11.33,1.37-14.5,3.52c-3.17,2.15-4.76,5.42-4.76,9.81c0,6.3,3.61,9.45,10.84,9.45c5.17,0,9.31-1.49,12.41-4.47
		c3.1-2.98,4.65-6.93,4.65-11.87V230.1z"/>
	<path class="st0" d="M582.42,186.16v31.49h31.2v-31.49h22.34v81.88h-22.34v-33.76h-31.2v33.76h-22.34v-81.88H582.42z"/>
	<path class="st0" d="M727.15,186.16v16.77h-26.81v65.11H678v-65.11h-26.88v-16.77H727.15z"/>
	<g>
		<path class="st0" d="M247.49,166.4h22.99v-15.18H162.03v15.62h30.37v60.73c0,0-0.87,23.42-36,23.42S59.23,240.14,54.89,140.37
			s59-122.76,87.63-123.63s71.58,18.65,90.23,80.25c9.54-0.43,11.71,0,11.71,0V5.9c0,0-6.51,15.18-21.26,14.75
			S196.74,0.26,140.78,0.26C75.28,0.26,0.23,43.2,0.23,126.92c0,88.93,41.64,143.59,145.32,140.98c0,0,17.38-1.14,27.36-4.13
			c14.21-4.26,21.44-8.98,21.44-8.98l0.13,13.12h53.01V166.4z"/>
	</g>
</g>
</svg>
