<?xml version="1.0" encoding="utf-8"?>
<!-- Generator: Adobe Illustrator 24.3.0, SVG Export Plug-In . SVG Version: 6.00 Build 0)  -->
<svg version="1.1" id="Слой_1" xmlns="http://www.w3.org/2000/svg" xmlns:xlink="http://www.w3.org/1999/xlink" x="0px" y="0px"
	 viewBox="0 0 372 368" style="enable-background:new 0 0 372 368;" xml:space="preserve" fill="#494949">
<style type="text/css">
</style>
<g>
	<path class="st0" d="M340.32,226.78h31.6v-20.87H222.86v21.46h41.74v83.47c0,0-1.19,32.2-49.49,32.2S81.55,328.14,75.59,191.01
		C69.63,53.88,156.68,22.28,196.03,21.08s98.38,25.64,124.02,110.3c13.12-0.6,16.1,0,16.1,0V6.18c0,0-8.94,20.87-29.22,20.27
		c-20.27-0.6-36.37-28.02-113.28-28.02c-90.03,0-193.18,59.03-193.18,174.1c0,122.23,57.24,197.35,199.74,193.78
		c0,0,23.89-1.57,37.61-5.68c19.54-5.86,29.46-12.35,29.46-12.35l0.18,18.03h72.86V226.78z"/>
</g>
</svg>
